<svg width="115" height="36" viewBox="0 0 115 36" fill="none" xmlns="http://www.w3.org/2000/svg">
<g filter="url(#filter0_d_172_3430)">
<path fill-rule="evenodd" clip-rule="evenodd" d="M30.3305 5.12085C31.2271 6.09278 31.9658 7.17721 32.5239 8.34085C33.3368 10.0375 33.755 11.8694 33.7521 13.7208C33.7461 21.1942 27.11 27.2543 18.9141 27.2708C17.0071 27.2699 15.1186 26.9302 13.354 26.2708C12.0954 25.8148 10.9139 25.1987 9.84461 24.4408C5.29668 21.2804 3.14504 16.0182 4.31376 10.9143C5.48248 5.81032 9.76356 1.77289 15.3184 0.535925C20.8733 -0.701037 26.7134 1.08261 30.3305 5.12085ZM23.8598 3.91087C22.3072 3.25201 20.6153 2.9107 18.9028 2.91087L18.9138 2.89087C14.8528 2.88811 11.0735 4.78265 8.90001 7.91062C6.72655 11.0386 6.46208 14.9638 8.19927 18.3109C8.69463 17.8363 8.99989 17.2233 9.06564 16.5709C9.46451 14.0583 11.629 12.0846 14.3845 11.7209C15.9392 11.5923 17.1808 10.4853 17.3565 9.07087C17.7554 6.55829 19.9199 4.58458 22.6754 4.22087C23.0831 4.16423 23.4812 4.06004 23.8598 3.91087ZM9.83341 20.7208C9.87728 20.6841 9.92115 20.6486 9.96502 20.613C10.0528 20.5419 10.1405 20.4708 10.2282 20.3908C11.2039 19.5283 11.8301 18.3897 12.0048 17.1608C12.0757 16.4701 12.4139 15.8249 12.9589 15.3408C13.4834 14.843 14.1894 14.5371 14.9439 14.4808C17.6994 14.1171 19.8639 12.1434 20.2628 9.63082C20.3102 8.90833 20.6503 8.22766 21.2169 7.72082C21.7543 7.23267 22.467 6.93792 23.2238 6.89082C24.4564 6.73618 25.606 6.23653 26.5139 5.46082C27.5476 6.24289 28.4235 7.18371 29.102 8.24082C29.0603 8.29217 29.0125 8.33912 28.9594 8.38082C28.436 8.88301 27.7309 9.19558 26.9745 9.26082C24.2155 9.61826 22.0476 11.5951 21.6556 14.1108C21.4962 15.5302 20.2627 16.6508 18.7055 16.7908C15.9424 17.1517 13.7665 19.1235 13.3537 21.6408C13.2947 22.1295 13.1107 22.5988 12.8164 23.0108C11.6912 22.4017 10.6834 21.628 9.83341 20.7208ZM15.6125 24.1609C16.6821 24.4406 17.7895 24.582 18.9023 24.5809V24.5309C22.5749 24.5179 26.0339 22.9547 28.2696 20.2976C30.5053 17.6406 31.2657 14.1892 30.3289 10.9509C29.4964 11.4877 28.5327 11.8309 27.5216 11.9509C25.9688 12.0953 24.7411 13.2149 24.5827 14.6309C24.1826 17.1466 22.0128 19.1212 19.2532 19.4809C17.7004 19.6253 16.4727 20.7449 16.3143 22.1609C16.2162 22.861 15.9784 23.5389 15.6125 24.1609Z" fill="#9893A3" fill-opacity="0.6"/>
<path d="M44.7908 19.3914H47.0369C47.688 19.3914 48.0135 19.0007 48.0135 18.2195V13.3367C48.0135 12.5554 47.688 12.1648 47.0369 12.1648H44.7908C44.1398 12.1648 43.8143 12.5554 43.8143 13.3367V18.2195C43.8143 19.0007 44.1398 19.3914 44.7908 19.3914ZM44.7908 21.1492C42.8377 21.1492 41.8611 20.1726 41.8611 18.2195V6.89136L43.7166 6.01245H43.8143V10.7097C44.0747 10.5079 44.4002 10.407 44.7908 10.407H47.0369C48.9901 10.407 49.9666 11.3835 49.9666 13.3367V18.2195C49.9666 20.1726 48.9901 21.1492 47.0369 21.1492H44.7908Z" fill="#9893A3" fill-opacity="0.6"/>
<path d="M54.5311 8.24878C54.3032 8.0144 54.1893 7.73446 54.1893 7.40894C54.1893 7.0769 54.3032 6.7937 54.5311 6.55933C54.7589 6.32495 55.0356 6.20776 55.3611 6.20776C55.6867 6.20776 55.9634 6.32495 56.1912 6.55933C56.4191 6.7937 56.533 7.0769 56.533 7.40894C56.533 7.73446 56.4191 8.0144 56.1912 8.24878C55.9634 8.48315 55.6867 8.60034 55.3611 8.60034C55.0356 8.60034 54.7589 8.48315 54.5311 8.24878ZM54.3846 21.5398V10.8953L56.2401 10.0164H56.3377V20.6609L54.4822 21.5398H54.3846Z" fill="#9893A3" fill-opacity="0.6"/>
<path d="M60.7557 21.5398V13.3367C60.7557 11.3835 61.7322 10.407 63.6854 10.407H65.9315C67.8846 10.407 68.8611 11.3835 68.8611 13.3367V20.6609L67.0057 21.5398H66.908V13.3367C66.908 12.5554 66.5825 12.1648 65.9315 12.1648H63.6854C63.0343 12.1648 62.7088 12.5554 62.7088 13.3367V20.6609L60.8533 21.5398H60.7557Z" fill="#9893A3" fill-opacity="0.6"/>
<path d="M75.2322 19.3914H77.283C77.9341 19.3914 78.2596 19.0007 78.2596 18.2195V16.8816C78.2596 16.1003 77.9341 15.7097 77.283 15.7097H75.2322C74.5812 15.7097 74.2557 16.1003 74.2557 16.8816V18.2195C74.2557 19.0007 74.5812 19.3914 75.2322 19.3914ZM75.2322 21.1492C73.2791 21.1492 72.3026 20.1726 72.3026 18.2195V16.8816C72.3026 14.9285 73.2791 13.9519 75.2322 13.9519H77.283C77.6216 13.9519 77.9471 14.0496 78.2596 14.2449V13.3367C78.2596 12.5554 77.9341 12.1648 77.283 12.1648H73.7869V12.0671L74.5682 10.407H77.283C79.2361 10.407 80.2127 11.3835 80.2127 13.3367V20.6609L78.3572 21.5398H78.2596V20.8562C78.0122 21.0515 77.6867 21.1492 77.283 21.1492H75.2322Z" fill="#9893A3" fill-opacity="0.6"/>
<path d="M85.4315 21.5398V12.1843H82.9217V12.0867L83.7127 10.407H85.4315V6.89136L87.2869 6.01245H87.3846V10.407H89.8943V10.5046L89.1033 12.1843H87.3846V20.6609L85.5291 21.5398H85.4315Z" fill="#9893A3" fill-opacity="0.6"/>
<path d="M95.533 19.3914H97.7791C98.4302 19.3914 98.7557 19.0007 98.7557 18.2195V13.3367C98.7557 12.5554 98.4302 12.1648 97.7791 12.1648H95.533C94.882 12.1648 94.5565 12.5554 94.5565 13.3367V18.2195C94.5565 19.0007 94.882 19.3914 95.533 19.3914ZM95.533 21.1492C93.5799 21.1492 92.6033 20.1726 92.6033 18.2195V13.3367C92.6033 11.3835 93.5799 10.407 95.533 10.407H97.7791C99.7322 10.407 100.709 11.3835 100.709 13.3367V18.2195C100.709 20.1726 99.7322 21.1492 97.7791 21.1492H95.533Z" fill="#9893A3" fill-opacity="0.6"/>
<path d="M104.638 21.5398V13.3367C104.638 11.3835 105.615 10.407 107.568 10.407H110.01V10.5046L109.228 12.1648H107.568C106.917 12.1648 106.592 12.5554 106.592 13.3367V20.6609L104.736 21.5398H104.638Z" fill="#9893A3" fill-opacity="0.6"/>
</g>
<defs>
<filter id="filter0_d_172_3430" x="0" y="0.14917" width="114.01" height="35.1217" filterUnits="userSpaceOnUse" color-interpolation-filters="sRGB">
<feFlood flood-opacity="0" result="BackgroundImageFix"/>
<feColorMatrix in="SourceAlpha" type="matrix" values="0 0 0 0 0 0 0 0 0 0 0 0 0 0 0 0 0 0 127 0" result="hardAlpha"/>
<feOffset dy="4"/>
<feGaussianBlur stdDeviation="2"/>
<feComposite in2="hardAlpha" operator="out"/>
<feColorMatrix type="matrix" values="0 0 0 0 0 0 0 0 0 0 0 0 0 0 0 0 0 0 0.25 0"/>
<feBlend mode="normal" in2="BackgroundImageFix" result="effect1_dropShadow_172_3430"/>
<feBlend mode="normal" in="SourceGraphic" in2="effect1_dropShadow_172_3430" result="shape"/>
</filter>
</defs>
</svg>
